<svg width="40" height="40" viewBox="0 0 40 40" fill="none" xmlns="http://www.w3.org/2000/svg">
  <rect width="40" height="40" rx="8" fill="#1A1A2E"/>
  <g transform="translate(4 4) scale(0.98)">
    <path d="M31.2593 30.7264L31.2988 30.7029C34.5218 28.8561 35.6268 24.7626 33.7667 21.56L23.1768 3.34715C21.3141 0.147106 17.1939 -0.950052 13.9682 0.896829L13.9288 0.920347C10.7058 2.76984 9.60075 6.86067 11.4609 10.0633L22.0507 28.2761C23.9135 31.4788 28.0363 32.5759 31.2593 30.7264Z" fill="url(#arb_grad_a_dark)"/>
    <path d="M30.2698 15.5464L23.437 3.79374C23.0292 2.9552 22.4346 2.20025 21.6848 1.58114C21.5927 1.50539 21.5006 1.42963 21.4059 1.3591C21.3585 1.32514 21.3112 1.28857 21.2638 1.25461C20.956 1.03518 20.6298 0.839251 20.293 0.67729L20.2903 0.687741C17.1358 -0.845666 13.2787 0.280224 11.4949 3.34704L0.905006 21.5598C-0.957755 24.7599 0.147274 28.8533 3.3729 30.7028L3.41237 30.7263C6.63537 32.5758 10.7582 31.4787 12.6209 28.276L17.3357 20.1675C17.3357 20.1675 24.2027 10.3741 32.172 18.8196L30.2698 15.5464Z" fill="url(#arb_grad_b_dark)"/>
  </g>
  <defs>
    <linearGradient id="arb_grad_a_dark" x1="30.3665" y1="30.132" x2="20.2732" y2="11.2189" gradientUnits="userSpaceOnUse">
      <stop stop-color="#00ECED"/>
      <stop offset="0.9947" stop-color="#3C2DC1"/>
    </linearGradient>
    <linearGradient id="arb_grad_b_dark" x1="0.191079" y1="22.559" x2="28.1769" y2="6.79829" gradientUnits="userSpaceOnUse">
      <stop offset="0.005291" stop-color="#3C2DC1"/>
      <stop offset="1" stop-color="#00ECED"/>
    </linearGradient>
  </defs>
</svg>
